<?xml version="1.0" encoding="iso-8859-1"?>
<!-- Generator: Adobe Illustrator 19.1.0, SVG Export Plug-In . SVG Version: 6.00 Build 0)  -->
<!-- Citation: https://www.flaticon.com/free-icon/anchor_133410 -->
<svg
	version="1.1"
	id="Capa_1"
	xmlns="http://www.w3.org/2000/svg"
	xmlns:xlink="http://www.w3.org/1999/xlink"
	x="0px" y="0px"
	viewBox="0 0 218.332 218.332"
	style="enable-background:new 0 0 218.332 218.332;"
	xml:space="preserve">
	<g id="group-21svg">
		<path id="path-1_82_" style="fill:#2476FF;" d="M117.925,190.525h15.494c2.987,0,5.408,1.52,5.408,3.395
			c0,1.874-2.421,3.395-5.408,3.395h-0.722c-2.987,0-5.409,1.52-5.409,3.395s2.422,3.394,5.409,3.394h33.306
			c2.987,0,5.409,1.521,5.409,3.395c0,1.875-2.422,3.395-5.409,3.395h-40.025H81.987c-2.988,0-5.409-1.52-5.409-3.395
			c0-1.874,2.421-3.395,5.409-3.395h9.243c2.987,0,5.409-1.519,5.409-3.394s-2.422-3.395-5.409-3.395H47.238
			c-2.987,0-5.409-1.521-5.409-3.395c0-1.875,2.422-3.395,5.409-3.395h10.397H117.925z"/>
		<path id="path-2_82_" style="fill:#2476FF;" d="M32.975,173.083c4.481,0,8.113-2.28,8.113-5.092c0-2.812-3.632-5.092-8.113-5.092
			H8.112c-4.48,0-8.112,2.28-8.112,5.092c0,2.812,3.632,5.092,8.112,5.092H32.975z"/>
		<path id="path-3_82_" style="fill:#142A3B;" d="M213.159,101.329l-31.533,23.951l13.758,4.94
			c-12.972,22.289-36.346,37.886-63.553,40.285v-81.75h18.76V74.674h-18.76V57.319c10.62-3.133,18.369-12.867,18.369-24.405
			c0-14.07-11.513-25.475-25.716-25.475c-14.202,0-25.715,11.405-25.715,25.475c0,11.538,7.749,21.272,18.369,24.405v17.355H98.379
			v14.082h18.759v81.75c-29.233-2.578-53.358-22.493-65.592-47.474l14.381-5.273L36.941,92.23L26.94,131.359l16.484-5.298
			c5.344,39.626,39.599,69.159,81.06,69.159c38.413,0,70.642-26.235,79.422-61.604l14.426,6.741L213.159,101.329z M124.484,42.556
			c-5.376,0-9.734-4.317-9.734-9.643c0-5.327,4.358-9.645,9.734-9.645c5.377,0,9.735,4.318,9.735,9.645
			C134.219,38.24,129.861,42.556,124.484,42.556z"/>
	</g>
</svg>
